<svg id="Layer_1" data-name="Layer 1" xmlns="http://www.w3.org/2000/svg" viewBox="0 0 330.77 303.5"><defs><style>.cls-1{fill:none;stroke:#231f20;stroke-miterlimit:10;}.cls-2{fill:#231f20;}.cls-3{font-size:19px;font-family:Montserrat-Regular, Montserrat;letter-spacing:0em;}.cls-4{letter-spacing:-0.02em;}.cls-5{letter-spacing:-0.01em;}</style></defs><title>Artboard 1</title><polygon class="cls-1" points="165.52 8.52 209.83 85.05 119.87 85.05 165.52 8.52"/><polygon class="cls-1" points="114.5 94.44 215.2 94.44 322.6 277.03 5.75 277.03 114.5 94.44"/><line class="cls-1" x1="95.71" y1="126.67" x2="233.99" y2="126.67"/><line class="cls-1" x1="71.54" y1="166.94" x2="257.85" y2="166.94"/><line class="cls-1" x1="49.68" y1="203.19" x2="279.38" y2="203.19"/><line class="cls-1" x1="25.89" y1="243.47" x2="302.46" y2="243.47"/><line class="cls-1" x1="162.84" y1="94.44" x2="162.84" y2="126.11"/><line class="cls-1" x1="138.67" y1="126.67" x2="138.67" y2="166.94"/><line class="cls-1" x1="192.37" y1="126.67" x2="192.37" y2="166.31"/><line class="cls-1" x1="114.5" y1="166.94" x2="114.5" y2="202.68"/><line class="cls-1" x1="166.86" y1="166.94" x2="166.86" y2="202.68"/><line class="cls-1" x1="220.57" y1="166.94" x2="220.57" y2="203.16"/><line class="cls-1" x1="90.34" y1="203.19" x2="90.34" y2="243.36"/><line class="cls-1" x1="142.7" y1="203.19" x2="142.7" y2="242.88"/><line class="cls-1" x1="195.06" y1="203.16" x2="195.06" y2="242.88"/><line class="cls-1" x1="247.42" y1="203.16" x2="247.42" y2="242.88"/><line class="cls-1" x1="62.14" y1="243.56" x2="62.14" y2="276.37"/><line class="cls-1" x1="114.5" y1="243.56" x2="114.5" y2="276.37"/><line class="cls-1" x1="169.55" y1="243.38" x2="169.55" y2="276.86"/><line class="cls-1" x1="223.25" y1="243.47" x2="223.25" y2="276.38"/><line class="cls-1" x1="272.93" y1="243.47" x2="272.93" y2="276.86"/><line class="cls-1" x1="164.18" y1="21.94" x2="164.18" y2="50.14"/><line class="cls-1" x1="145.38" y1="32.69" x2="154.78" y2="50.14"/><line class="cls-1" x1="179.45" y1="50.14" x2="185.15" y2="31.15"/><line class="cls-1" x1="129.27" y1="44.77" x2="141.35" y2="56.85"/><line class="cls-1" x1="207.14" y1="39.4" x2="195.06" y2="51.48"/><line class="cls-1" x1="201.77" y1="66.25" x2="223.25" y2="66.25"/><line class="cls-1" x1="107.79" y1="66.25" x2="129.27" y2="66.25"/><line class="cls-1" x1="140.01" y1="78.33" x2="127.93" y2="95.79"/><line class="cls-1" x1="207.14" y1="91.76" x2="189.69" y2="79.68"/><line class="cls-1" x1="176.26" y1="86.2" x2="185.66" y2="103.65"/><line class="cls-1" x1="152.42" y1="86.2" x2="146.72" y2="105.18"/><circle class="cls-1" cx="165" cy="68.56" r="13.05"/><path class="cls-1" d="M136,67.59c32.22-28.64,56.39,0,56.39,0S168.21,100.26,136,67.59Z"/><path class="cls-2" d="M165,59.54a8.71,8.71,0,0,0-2.34.33,4.69,4.69,0,1,1-6.06,6.06,8.72,8.72,0,1,0,8.4-6.39Z"/><text class="cls-3" transform="translate(3.78 295.8)">MODERN R<tspan class="cls-4" x="108.19" y="0">O</tspan><tspan x="123.12" y="0">OF </tspan><tspan class="cls-5" x="154.56" y="0">C</tspan><tspan x="167.6" y="0">ONSULTING INC</tspan></text></svg>