<svg id="Layer_1" data-name="Layer 1" xmlns="http://www.w3.org/2000/svg" viewBox="0 0 200 200"><defs><style>.cls-1{fill:#ac0844;}</style></defs><title>Artboard 1</title><path class="cls-1" d="M136.3,105.94H112v27.13h24.3c12.42,0,19.84-4.86,19.84-13.77C156.15,110.93,148.72,105.94,136.3,105.94Z"/><path class="cls-1" d="M152.5,79.21c0-8-6.07-12.28-16.2-12.28H112v25h24.3C146.43,91.9,152.5,87.18,152.5,79.21Z"/><polygon class="cls-1" points="43.45 92.58 89.61 92.58 89.61 106.89 43.45 106.89 43.45 132.94 96.08 132.94 96.08 67.06 43.45 67.06 43.45 92.58"/><path class="cls-1" d="M100,4a96,96,0,1,0,96,96A96,96,0,0,0,100,4Zm38.06,143.25H27.52V52.75h109.6c19.57,0,31.72,8.91,31.72,23.62,0,10.66-6.34,18.63-16.6,21.06,12.69,2.16,20.25,11.2,20.25,23.89C172.48,137.53,159.39,147.25,138.06,147.25Z"/></svg>